<svg xmlns="http://www.w3.org/2000/svg" viewBox="0 0 28 36" width="40" height="40">
  <path fill-rule="evenodd" clip-rule="evenodd" d="M25.5304 7.46631C26.3902 7.46631 27.186 7.92462 27.5892 8.66966C27.9755 9.38331 27.9591 10.2243 27.5464 10.9223L27.5323 10.9458L23.9146 16.9074C23.5055 17.5816 22.767 18.0023 21.9776 18.0113L21.9518 18.0115L17.8207 18.0114L19.5377 21.8838L19.5446 21.8952L19.5551 21.9135C19.9595 22.6335 19.9496 23.4895 19.5303 24.1987L19.5162 24.2223L15.8985 30.184C15.4893 30.8581 14.7508 31.2789 13.9615 31.2879L13.9357 31.288L8.86521 31.288L5.22012 35.0753L5.21322 35.0823C4.87021 35.4258 4.40676 35.6174 3.92356 35.6174C3.80277 35.6174 3.6819 35.6054 3.56233 35.5814C2.97291 35.4629 2.4832 35.0644 2.24747 34.5149L2.24082 34.4992L0.322582 30.1613L0.312492 30.1447L0.302011 30.1268C0.30027 30.1238 0.298499 30.1206 0.29665 30.1173C-0.10772 29.3974 -0.0979261 28.5414 0.321374 27.8321L0.335502 27.8085L3.8443 22.0263L1.25884 16.1955L1.30622 16.1717L1.3055 16.1682C1.19611 15.6318 1.28417 15.0725 1.56512 14.5826L1.58064 14.556L1.59498 14.532L5.2127 8.57029C5.62186 7.89619 6.36044 7.47543 7.14972 7.46631H7.17548H25.5304ZM6.53453 31.2427L2.69069 31.2426L3.81966 33.8153L3.82244 33.8221C3.84115 33.8682 3.87142 33.8934 3.91648 33.9026C3.95667 33.9107 3.98919 33.9023 4.01994 33.8747L4.02532 33.8696L6.53453 31.2427ZM17.5229 22.3978H5.90385C5.89102 22.3978 5.87819 22.3983 5.86538 22.3991L5.86186 22.3994L9.0477 29.5783H13.9351C14.136 29.5783 14.3296 29.4723 14.4396 29.3021L14.4483 29.2882L18.0713 23.3229C18.1794 23.1449 18.1913 22.9385 18.1057 22.7527C18.0069 22.5384 17.7777 22.3978 17.5229 22.3978ZM4.69605 23.872L1.82063 28.6463C1.70621 28.8363 1.69958 29.0588 1.80204 29.2547L1.81291 29.2746L1.8187 29.2844L1.8303 29.3031L1.8533 29.3367L1.87897 29.3696L1.90353 29.3973L1.90779 29.4018L1.9244 29.4183L1.93883 29.4319C2.02928 29.5127 2.14109 29.5621 2.26441 29.5748L2.29212 29.5771L2.30816 29.5779L2.32848 29.5783H7.20721L4.69605 23.872ZM3.93994 18.023L5.20279 20.8761L5.22739 20.8679C5.44548 20.796 5.6735 20.757 5.90401 20.7535L5.93861 20.7532L17.2012 20.7532L15.9928 18.023L3.93994 18.023ZM25.4983 9.13065H13.8378L17.0246 16.3111H21.9103C22.1116 16.3111 22.3053 16.2051 22.4154 16.0348L22.4241 16.0208L26.0473 10.0556C26.1553 9.87773 26.1673 9.67143 26.0817 9.4858C25.985 9.27595 25.7632 9.13667 25.5146 9.13084L25.4983 9.13065ZM12.0528 9.13065H7.19416C6.99436 9.13065 6.80166 9.23641 6.69203 9.40642L6.68333 9.42035L3.06968 15.3857C2.9618 15.5637 2.94987 15.7705 3.03542 15.9565C3.13178 16.1662 3.35237 16.3051 3.59952 16.3109L3.61568 16.3111H15.2312L12.0528 9.13065Z" fill="#4B39EF"/>
</svg>